<svg width="100" height="100" viewBox="0 -10 80 100" fill="none" xmlns="http://www.w3.org/2000/svg">
<path d="M39.0674 62.6438C39.0674 61.7076 38.7899 60.7925 38.2698 60.0142C37.7497 59.2358 37.0105 58.6292 36.1456 58.2709C35.2807 57.9127 34.3291 57.819 33.4109 58.0016C32.4928 58.1842 31.6494 58.635 30.9875 59.2969C30.3256 59.9589 29.8748 60.8022 29.6921 61.7204C29.5095 62.6385 29.6032 63.5902 29.9615 64.4551C30.3197 65.3199 30.9264 66.0591 31.7047 66.5792C32.4831 67.0993 33.3982 67.3769 34.3343 67.3769C35.5892 67.3756 36.7923 66.8765 37.6797 65.9891C38.567 65.1018 39.0661 63.8987 39.0674 62.6438ZM31.7893 62.6438C31.7893 62.1403 31.9386 61.6481 32.2184 61.2294C32.4981 60.8108 32.8957 60.4845 33.3609 60.2919C33.8261 60.0992 34.338 60.0488 34.8318 60.1471C35.3256 60.2454 35.7792 60.4879 36.1352 60.844C36.4912 61.2 36.7336 61.6537 36.8317 62.1475C36.9299 62.6414 36.8794 63.1532 36.6866 63.6184C36.4939 64.0835 36.1675 64.481 35.7488 64.7607C35.3301 65.0403 34.8378 65.1895 34.3343 65.1894C33.6595 65.1886 33.0125 64.9201 32.5354 64.4428C32.0583 63.9656 31.79 63.3186 31.7893 62.6438Z" fill="black"/>
<path d="M62.905 62.6438C62.905 61.7076 62.6274 60.7925 62.1073 60.0141C61.5871 59.2357 60.8479 58.6291 59.983 58.2709C59.1181 57.9127 58.1664 57.819 57.2482 58.0016C56.3301 58.1843 55.4867 58.6352 54.8248 59.2972C54.1629 59.9592 53.7122 60.8026 53.5296 61.7208C53.347 62.6389 53.4409 63.5906 53.7992 64.4555C54.1575 65.3203 54.7643 66.0595 55.5427 66.5795C56.3212 67.0995 57.2363 67.377 58.1725 67.3769C59.4273 67.3756 60.6304 66.8765 61.5176 65.9891C62.4049 65.1017 62.9038 63.8986 62.905 62.6438ZM55.625 62.6438C55.625 62.1403 55.7743 61.6481 56.054 61.2295C56.3337 60.8109 56.7313 60.4846 57.1964 60.2919C57.6616 60.0992 58.1734 60.0488 58.6672 60.1471C59.161 60.2453 59.6146 60.4877 59.9706 60.8437C60.3266 61.1998 60.5691 61.6533 60.6673 62.1471C60.7655 62.6409 60.7151 63.1528 60.5224 63.6179C60.3298 64.0831 60.0035 64.4807 59.5849 64.7604C59.1662 65.0401 58.6741 65.1894 58.1706 65.1894C57.4957 65.1887 56.8486 64.9203 56.3713 64.4431C55.894 63.9658 55.6256 63.3187 55.625 62.6438Z" fill="black"/>
<path d="M31.4375 48.3275L31.4769 48.3237L61.3387 45.4519C62.3804 45.3561 63.363 44.9256 64.1396 44.2249C64.9162 43.5241 65.445 42.5907 65.6469 41.5644L69.1981 23.91C69.2301 23.7512 69.2263 23.5873 69.1872 23.4301C69.148 23.2729 69.0745 23.1264 68.9718 23.0011C68.8691 22.8758 68.7399 22.7749 68.5934 22.7056C68.447 22.6364 68.287 22.6005 68.125 22.6006H24.7137L23.2406 17.4756C22.8336 16.08 21.9861 14.8535 20.8246 13.9793C19.6631 13.1051 18.25 12.63 16.7962 12.625H11.875C11.5849 12.625 11.3067 12.7402 11.1016 12.9454C10.8965 13.1505 10.7813 13.4287 10.7812 13.7188C10.7813 14.0088 10.8965 14.287 11.1016 14.4921C11.3067 14.6973 11.5849 14.8125 11.875 14.8125H16.7962C17.7759 14.816 18.7282 15.1362 19.5108 15.7255C20.2935 16.3147 20.8646 17.1413 21.1387 18.0819L22.8387 23.9981C22.8387 24.0019 22.8431 24.005 22.845 24.0094C22.8457 24.0151 22.8468 24.0207 22.8481 24.0263L29.9544 46.4562C28.9036 46.8686 28.0297 47.6347 27.4833 48.6224C26.937 49.6101 26.7524 50.7575 26.9615 51.8667C27.1706 52.9759 27.7602 53.9774 28.6287 54.6984C29.4971 55.4194 30.59 55.8148 31.7187 55.8163H62.4375C62.7276 55.8163 63.0058 55.701 63.2109 55.4959C63.416 55.2908 63.5312 55.0126 63.5312 54.7225C63.5312 54.4324 63.416 54.1542 63.2109 53.9491C63.0058 53.744 62.7276 53.6288 62.4375 53.6288H31.7187C31.0382 53.6287 30.3836 53.3677 29.8898 52.8994C29.396 52.4312 29.1006 51.7913 29.0645 51.1118C29.0284 50.4322 29.2542 49.7647 29.6956 49.2467C30.137 48.7287 30.7608 48.3997 31.4375 48.3275ZM25.3844 24.7881H66.79L63.5 41.1331C63.389 41.6989 63.0976 42.2135 62.6693 42.5995C62.2411 42.9856 61.6992 43.2224 61.125 43.2744L32.125 46.0625L25.3844 24.7881Z" fill="black"/>
</svg>
