<svg width="80" height="80" viewBox="0 0 80 80" fill="none" xmlns="http://www.w3.org/2000/svg">
<g clip-path="url(#clip0_23_101)">
<path d="M67.5114 27.5691C67.2166 26.9396 66.5769 26.5328 65.8817 26.5328H64.4719C63.7767 26.5328 63.1372 26.9397 62.8423 27.5691C62.5475 28.1986 62.6445 28.9503 63.0895 29.4842L63.7942 30.33C64.1372 30.7417 64.6411 30.9778 65.1769 30.9778C65.7127 30.9778 66.2166 30.7417 66.5594 30.3302L67.2642 29.4842C67.7092 28.9503 67.8063 28.1986 67.5114 27.5691Z" fill="#343434"/>
<path d="M60.3594 21.2614C59.9484 21.2614 59.5453 21.4285 59.2547 21.7192C58.9641 22.0114 58.7969 22.4129 58.7969 22.8239C58.7969 23.2364 58.9641 23.6379 59.2547 23.9285C59.5453 24.2207 59.9484 24.3881 60.3594 24.3881C60.7703 24.3881 61.1734 24.2209 61.4641 23.9285C61.7547 23.6395 61.9219 23.2364 61.9219 22.8239C61.9219 22.4129 61.7547 22.0098 61.4641 21.7192C61.1734 21.4285 60.7703 21.2614 60.3594 21.2614Z" fill="#343434"/>
<path d="M69.9953 24.3864C70.4062 24.3864 70.8094 24.2207 71.1 23.9285C71.3906 23.6379 71.5578 23.2364 71.5578 22.8239C71.5578 22.4129 71.3906 22.0098 71.1 21.7192C70.8094 21.4285 70.4062 21.2614 69.9953 21.2614C69.5828 21.2614 69.1812 21.4285 68.8891 21.7192C68.5984 22.0098 68.4328 22.4129 68.4328 22.8239C68.4328 23.2364 68.5984 23.6379 68.8891 23.9285C69.1797 24.2207 69.5828 24.3864 69.9953 24.3864Z" fill="#343434"/>
<path d="M69.85 37.4764C75.6564 36.1367 80 30.9281 80 24.7206C80 21.9764 79.1305 19.2929 77.5366 17.0762C77.7173 16.2987 77.8403 15.5051 77.9031 14.7075C78.005 13.4126 77.9494 12.1117 77.738 10.8406C77.5925 9.96653 77.0628 9.22044 76.2848 8.79372C75.5067 8.36684 74.5927 8.32106 73.7773 8.66809C72.0055 9.42216 70.4089 10.4737 69.0206 11.8003C68.3191 11.6853 67.6111 11.6273 66.9066 11.6273H63.4472C62.7478 11.6273 62.045 11.6845 61.3484 11.7978C59.9608 10.4725 58.365 9.42169 56.5942 8.66809C55.7786 8.32106 54.8647 8.36684 54.0866 8.79387C53.3086 9.22075 52.7791 9.96684 52.6336 10.8407C52.422 12.1117 52.3664 13.4126 52.4683 14.7078C52.5308 15.4986 52.6522 16.2859 52.8305 17.0573C52.2341 17.8837 51.7389 18.7754 51.3517 19.7111H29.2709C26.0964 19.7111 23.0372 20.384 20.1786 21.7111C19.3959 22.0745 19.0559 23.0036 19.4194 23.7862C19.6839 24.3559 20.2483 24.6912 20.8377 24.6912C21.058 24.6912 21.2817 24.6443 21.4947 24.5456C23.938 23.4112 26.5544 22.8361 29.2711 22.8361H50.4931C50.4023 23.4579 50.3539 24.0875 50.3539 24.7208C50.3539 31.9404 56.2277 37.8142 63.4473 37.8142H66.5425C65.3823 41.827 62.6853 45.2259 59.015 47.2776L58.1861 45.5072C57.82 44.7256 56.8898 44.3887 56.1084 44.7547C55.3269 45.1206 54.99 46.0508 55.3559 46.8323L59.5747 55.8428C59.6508 56.0051 59.7541 56.1531 59.8803 56.2804L61.7003 58.1159C62.1228 58.5422 61.9897 59.0175 61.9128 59.202C61.8359 59.3865 61.5922 59.8158 60.992 59.8158H56.5492C56.5492 59.8158 39.6445 37.9218 39.6045 37.8804C37.3075 35.0001 33.7719 33.149 29.81 33.149C28.947 33.149 28.2475 33.8486 28.2475 34.7115C28.2475 35.5745 28.947 36.274 29.81 36.274C34.9937 36.274 39.2111 40.4914 39.2111 45.6751C39.2111 48.6475 37.7798 51.4776 35.3823 53.2458C34.8392 53.6464 34.6147 54.3503 34.8255 54.9914C35.0364 55.6325 35.6348 56.0658 36.3097 56.0658H38.792C41.1778 56.0658 43.2014 57.6465 43.87 59.8158H29.2709C19.0756 59.8154 10.7812 51.5209 10.7812 41.3256C10.7812 38.6253 11.3497 36.0234 12.4708 33.5922C12.8322 32.8086 12.4898 31.8804 11.7061 31.519C10.9227 31.1578 9.99422 31.5 9.63281 32.2836C8.32125 35.1281 7.65625 38.1703 7.65625 41.3256C7.65625 43.3106 7.92656 45.2334 8.43 47.0606C3.45844 48.8084 0 53.5686 0 58.957C0 65.9079 5.655 71.5631 12.6061 71.5631H54.4792C55.3422 71.5631 56.0417 70.8636 56.0417 70.0006C56.0417 67.2612 54.9527 64.7729 53.1872 62.9404H60.9919C62.687 62.9404 64.1452 61.9684 64.7972 60.4037C65.4492 58.8389 65.1128 57.1192 63.9191 55.9153L62.2897 54.2722L60.3427 50.1137C65.1994 47.4736 68.6655 42.8737 69.85 37.4764ZM53.4788 24.7204C53.4788 22.4186 54.2822 20.1729 55.7411 18.3973C56.0667 18.0009 56.177 17.4698 56.0364 16.9765C55.8033 16.1595 55.6511 15.3134 55.5839 14.462C55.5105 13.5287 55.5386 12.5925 55.6672 11.6739C57.1858 12.3653 58.5381 13.3357 59.6905 14.5618C60.0717 14.9675 60.64 15.1397 61.1825 15.0137C61.93 14.8401 62.692 14.752 63.4472 14.752H66.9066C67.6663 14.752 68.4325 14.8411 69.1841 15.0167C69.7273 15.1437 70.2966 14.9715 70.6784 14.565C71.8314 13.3375 73.1847 12.3661 74.7047 11.674C74.8334 12.5926 74.8614 13.5289 74.788 14.462C74.7266 15.2411 74.5941 16.015 74.3936 16.7664C74.1562 17.2959 74.2283 17.9297 74.6125 18.3973C76.0716 20.1729 76.875 22.4186 76.875 24.7208C76.875 30.2175 72.4031 34.6892 66.9066 34.6892H63.4472C57.9505 34.689 53.4788 30.2172 53.4788 24.7204ZM39.9489 53.0195C41.3228 51.1181 42.1527 48.8483 42.3073 46.4793L52.6014 59.8156H47.0844C46.4195 56.2793 43.5414 53.5142 39.9489 53.0195ZM12.6061 68.4379C7.37813 68.4379 3.125 64.1848 3.125 58.957C3.125 54.8987 5.73172 51.3144 9.47734 50.0043C12.8267 57.6137 20.438 62.9404 29.2711 62.9404H45.8566C49.2127 62.9404 52.0295 65.2943 52.7423 68.4381H12.6061V68.4379Z" fill="#343434"/>
<path d="M15.0766 28.724C15.4891 28.724 15.8906 28.5568 16.1828 28.2662C16.4734 27.9756 16.6391 27.5724 16.6391 27.1615C16.6391 26.7506 16.4734 26.3474 16.1828 26.0568C15.8906 25.7662 15.4891 25.599 15.0766 25.599C14.6656 25.599 14.2641 25.7662 13.9719 26.0568C13.6812 26.3474 13.5156 26.7506 13.5156 27.1615C13.5156 27.5724 13.6812 27.9756 13.9719 28.2662C14.2641 28.5567 14.6656 28.724 15.0766 28.724Z" fill="#343434"/>
</g>
<defs>
<clipPath id="clip0_23_101">
<rect width="80" height="80" fill="white"/>
</clipPath>
</defs>
</svg>
