<svg width="80" height="80" viewBox="0 0 80 80" fill="none" xmlns="http://www.w3.org/2000/svg">
<g clip-path="url(#clip0_26_208)">
<path d="M78.4371 45.1627H49.8754L45.368 38.6834C44.6028 37.5834 44.8636 36.0498 45.9494 35.2647L51.1809 31.4811C51.569 31.2004 51.7893 30.7744 51.8226 30.3313V35.7878C51.8226 36.0366 51.882 36.2817 51.9959 36.503L54.0791 40.5506C54.3563 41.0892 54.9029 41.3984 55.4696 41.3982C55.7102 41.3982 55.9546 41.3425 56.1833 41.2246C56.9505 40.8298 57.2524 39.8876 56.8576 39.1203L54.9474 35.4094V18.9629L57.8971 14.4639L62.347 18.38C63.8439 19.6973 65.6544 20.6615 67.5828 21.1689C70.8654 22.032 73.4237 24.4834 74.4262 27.7263L74.8346 29.0474C74.8437 29.0768 74.8537 29.1058 74.8643 29.1346L76.1973 32.6892H67.8117C66.9487 32.6892 66.2492 33.3888 66.2492 34.2517C66.2492 35.1147 66.9487 35.8142 67.8117 35.8142H75.7648C74.2395 37.7364 71.8823 38.9262 69.3595 38.9262H62.7597C61.8967 38.9262 61.1972 39.6258 61.1972 40.4887C61.1972 41.3517 61.8967 42.0512 62.7597 42.0512H69.3595C73.9981 42.0512 78.2321 39.142 79.8952 34.8119C79.9605 34.6417 79.9932 34.4639 79.9972 34.2866C79.9975 34.2811 79.998 34.2758 79.9983 34.2703C79.9985 34.2583 79.9982 34.2463 79.998 34.2344C80.001 34.0445 79.9705 33.851 79.8997 33.6624L77.8066 28.0804L77.4118 26.8035C76.0883 22.5226 72.7112 19.2864 68.3776 18.1469C66.9169 17.7626 65.5455 17.0322 64.4116 16.0342L58.6097 10.9286C58.2699 10.6296 57.8169 10.4925 57.368 10.5533C56.9193 10.6139 56.519 10.8663 56.2708 11.245L53.9763 14.7453C53.8362 14.6284 53.6745 14.533 53.492 14.4692L40.0571 9.77677C34.1012 7.69647 27.7706 7.57147 21.75 9.4149C20.9249 9.66755 20.4608 10.5411 20.7135 11.3664C20.9661 12.1916 21.84 12.6553 22.665 12.403C28.0456 10.7555 33.7035 10.8677 39.0268 12.7271L52.2679 17.3519L52.0792 17.6398C51.9123 17.8944 51.8234 18.1922 51.8234 18.4965V30.1097C51.8045 29.8271 51.7103 29.546 51.532 29.2996C51.0264 28.6004 50.0496 28.4433 49.3503 28.9491L44.1188 32.7327C41.6621 34.5092 41.0721 37.9794 42.8035 40.4681L46.0695 45.1629H32.4237L34.7668 37.4825C35.4262 35.3213 34.7779 33.056 33.0751 31.5708C31.3723 30.0855 29.0398 29.7511 26.9883 30.698L21.0649 33.4319C20.2813 33.7935 19.9393 34.7219 20.301 35.5053C20.6625 36.2889 21.591 36.6306 22.3744 36.2692L28.2978 33.5353C29.2295 33.1053 30.2476 33.2513 31.021 33.926C31.7943 34.6005 32.0773 35.5892 31.7778 36.5708L29.1564 45.1631H25.7075L26.7953 41.9082C27.0687 41.0898 26.627 40.2047 25.8087 39.9311C24.9902 39.6575 24.105 40.0993 23.8316 40.9178L22.4128 45.1629H18.9205C18.0576 45.1629 17.358 45.8624 17.358 46.7254C17.358 47.5883 18.0576 48.2879 18.9205 48.2879H78.4377C79.3007 48.2879 80.0002 47.5883 80.0002 46.7254C80 45.8623 79.3 45.1627 78.4371 45.1627Z" fill="#343434"/>
<path d="M78.4371 51.7252H47.9687C47.1058 51.7252 46.4062 52.4247 46.4062 53.2877C46.4062 54.1507 47.1058 54.8502 47.9687 54.8502H56.082L67.6728 59.8773C67.8753 59.9652 68.0862 60.0067 68.2937 60.0067C68.8975 60.0067 69.4725 59.6548 69.7279 59.0656C70.0714 58.2739 69.7079 57.3538 68.9162 57.0105L63.9355 54.8502H78.4371C79.3001 54.8502 79.9996 54.1507 79.9996 53.2877C79.9996 52.4247 79.3001 51.7252 78.4371 51.7252Z" fill="#343434"/>
<path d="M42.2703 52.1825C41.9797 51.8919 41.5766 51.7247 41.1656 51.7247C40.7531 51.7247 40.3516 51.8919 40.0594 52.1825C39.7688 52.4732 39.6031 52.8763 39.6031 53.2872C39.6031 53.6982 39.7688 54.1013 40.0594 54.3919C40.3516 54.6841 40.7531 54.8497 41.1656 54.8497C41.5766 54.8497 41.9781 54.6841 42.2703 54.3919C42.5609 54.1013 42.7281 53.6982 42.7281 53.2872C42.7281 52.8763 42.5609 52.4732 42.2703 52.1825Z" fill="#343434"/>
<path d="M35.3646 51.7252H18.9199C18.0569 51.7252 17.3574 52.4247 17.3574 53.2877C17.3574 54.1507 18.0569 54.8502 18.9199 54.8502H35.3648C36.2277 54.8502 36.9273 54.1507 36.9273 53.2877C36.9273 52.4247 36.2276 51.7252 35.3646 51.7252Z" fill="#343434"/>
<path d="M30.488 56.831C28.1569 55.9937 25.5677 57.0348 24.4654 59.2529C24.1387 59.9104 23.4795 60.319 22.7451 60.319C21.1287 60.319 19.6092 59.6894 18.4662 58.5466C16.4966 56.577 15.4117 53.9581 15.4117 51.1725V46.7253C15.4117 45.8624 14.7122 45.1628 13.8492 45.1628C12.9863 45.1628 12.2867 45.8624 12.2867 46.7253V51.1725C12.2867 54.7928 13.6966 58.1963 16.2564 60.7563C17.9897 62.4894 20.294 63.4439 22.7451 63.4439C24.6738 63.4439 26.4054 62.371 27.2638 60.6436C27.6607 59.8454 28.5924 59.4705 29.4316 59.7721C30.3325 60.0957 30.8113 61.095 30.4985 61.9999C29.1019 66.0411 25.2907 68.7564 21.015 68.7564C16.0645 68.7564 11.5358 66.2545 8.90037 62.0638C2.31464 51.5906 1.29699 38.5512 6.17851 27.1831C7.70335 23.6321 9.92692 20.5329 12.7871 17.9718C13.4299 17.3962 13.4844 16.4084 12.9088 15.7654C12.3332 15.1226 11.3453 15.0681 10.7024 15.6437C7.50085 18.5104 5.01259 21.978 3.30697 25.95C-1.98002 38.2621 -0.877993 52.3843 6.25508 63.7272C9.46583 68.8329 14.9836 71.8812 21.015 71.8812C26.6224 71.8812 31.6205 68.3203 33.452 63.0203C34.3208 60.5066 32.9911 57.7301 30.488 56.831Z" fill="#343434"/>
<path d="M18.4671 12.3088C18.0579 11.5489 17.106 11.2672 16.346 11.6763C15.5863 12.0853 15.3019 13.033 15.7112 13.7928C15.9935 14.3169 16.5321 14.6147 17.0883 14.6147C17.3385 14.6147 17.5921 14.5545 17.8277 14.4276L17.8366 14.4228C18.5963 14.0136 18.8761 13.0684 18.4671 12.3088Z" fill="#343434"/>
<path d="M67.0153 25.6438C66.7247 25.3532 66.3231 25.186 65.9106 25.186C65.4997 25.186 65.0966 25.3532 64.806 25.6438C64.5153 25.9345 64.3481 26.3376 64.3481 26.7485C64.3481 27.1595 64.5153 27.5626 64.806 27.8532C65.0966 28.1454 65.4997 28.311 65.9106 28.311C66.3231 28.311 66.7247 28.1454 67.0153 27.8532C67.3075 27.5626 67.4731 27.161 67.4731 26.7485C67.4731 26.3376 67.3075 25.9345 67.0153 25.6438Z" fill="#343434"/>
</g>
<defs>
<clipPath id="clip0_26_208">
<rect width="80" height="80" fill="white"/>
</clipPath>
</defs>
</svg>
