<svg width="100" height="100" viewBox="0 0 100 100" fill="none" xmlns="http://www.w3.org/2000/svg">
<g clip-path="url(#clip0_131_209)">
<path d="M98.5151 22.2169C97.3135 20.7903 95.5545 19.9719 93.689 19.9719H89.2119C87.2242 16.4729 83.5069 14.2752 79.4114 14.2752H78.4854V7.46266C78.4854 6.38394 77.611 5.50952 76.5323 5.50952C69.2519 5.50952 63.3289 11.4326 63.3289 18.7129V24.8163C63.3289 29.0642 60.9837 32.9132 57.2087 34.8611L50.8317 38.1516C49.8731 38.6463 49.4969 39.8242 49.9914 40.7828C50.3381 41.4549 51.0209 41.8409 51.7288 41.8409C52.0303 41.8409 52.3364 41.7709 52.6227 41.6231L58.9997 38.3326C64.0796 35.7115 67.2351 30.5324 67.2351 24.8165V18.7127C67.2351 14.2563 70.3875 10.5219 74.5791 9.62205V16.2284C74.5791 17.3071 75.4538 18.1815 76.5323 18.1815H79.4114C82.381 18.1815 85.0462 19.9493 86.2015 22.685C86.507 23.4083 87.2156 23.8784 88.0007 23.8784H93.689C94.3996 23.8784 95.0697 24.1901 95.5275 24.7337C95.9854 25.2773 96.1787 25.9905 96.058 26.6909L95.3352 30.8839C94.8764 33.5435 92.5849 35.4736 89.8863 35.4736H81.1909C81.1704 35.4736 81.1507 35.476 81.1304 35.4767C81.11 35.4762 81.0903 35.4736 81.0698 35.4736C79.9913 35.4736 79.1167 36.348 79.1167 37.4268V46.9766C79.1167 53.8853 77.7831 60.6213 75.1532 66.9977C74.9911 67.3905 74.9618 67.8254 75.069 68.2366L79.8731 86.6094C79.9571 86.9303 80.1212 87.2244 80.3503 87.4643L82.0669 89.2619C82.3772 89.5869 82.2964 89.933 82.2204 90.1102C82.1444 90.2875 81.9501 90.5852 81.5007 90.5852H74.994L66.6002 68.8366V59.8045C66.6002 58.7258 65.7255 57.8513 64.647 57.8513C63.5683 57.8513 62.6939 58.7258 62.6939 59.8045V69.2004C62.6939 69.4409 62.7382 69.6794 62.8249 69.9038L70.807 90.5848H63.9363C62.9935 84.4746 57.6993 79.7814 51.3293 79.7814H49.1248L48.253 74.6079C47.3211 69.0788 43.1748 64.7543 37.6896 63.591L33.995 62.8074C32.9407 62.5838 31.903 63.2576 31.6792 64.3127C31.4554 65.368 32.1294 66.4047 33.1847 66.6286L36.8792 67.4122C40.7849 68.2405 43.7373 71.3198 44.4008 75.2569L45.1633 79.7812H33.1294C32.0509 79.7812 31.1763 80.6556 31.1763 81.7343C31.1763 82.8131 32.0509 83.6875 33.1294 83.6875H51.3293C55.5386 83.6875 59.0708 86.641 59.9622 90.5846H32.8103C23.0387 90.5846 15.0888 82.6347 15.0888 72.8632C15.0888 65.5391 19.132 58.9031 25.6407 55.5449L37.0056 49.6808C37.964 49.1862 38.3402 48.0081 37.8456 47.0495C37.3511 46.0909 36.1724 45.7145 35.2144 46.2094L23.8494 52.0736C20.7314 53.6824 18.0867 55.9191 16.0318 58.5834C15.816 57.5595 15.7062 56.5097 15.7062 55.4388C15.7062 49.9853 18.6611 44.9305 23.4176 42.2473C24.7061 41.5205 25.3174 40.0645 24.9391 38.6238C24.5409 37.1072 23.1785 36.0463 21.6207 36.0342C21.6117 36.034 21.6031 36.0328 21.5941 36.0328C21.5885 36.0328 21.5826 36.0328 21.5768 36.033C21.5744 36.033 21.5723 36.0334 21.5699 36.0334C9.90792 36.0463 0.235582 45.6512 0.00393946 57.4558C-0.157781 65.6928 4.38054 73.3671 11.6222 77.2144C13.6415 87.0615 22.3746 94.4909 32.8103 94.4909H81.5009C83.4095 94.4909 85.0612 93.4008 85.8118 91.6461C86.5626 89.8914 86.2101 87.9439 84.8919 86.5635L83.5243 85.1316L79.0122 67.8754C81.6737 61.2059 83.0228 54.1781 83.0228 46.9764V39.3797H89.8863C94.4914 39.3797 98.402 36.0857 99.1844 31.5474L99.9073 27.3542C100.224 25.5159 99.717 23.6435 98.5151 22.2169ZM3.90963 57.5326C4.08678 48.5059 10.9667 41.0453 19.625 40.0518C14.7503 43.6118 11.8003 49.3259 11.8003 55.4388C11.8003 58.0713 12.3242 60.606 13.3568 62.9889C12.0199 65.868 11.265 69.0383 11.1917 72.3352C6.57743 68.9102 3.79459 63.3949 3.90963 57.5326Z" fill="#F39F18"/>
<path d="M81.3889 26.1973C81.752 25.834 81.9612 25.3301 81.9612 24.8164C81.9612 24.3027 81.7522 23.7988 81.3889 23.4356C81.0257 23.0723 80.5216 22.8633 80.0081 22.8633C79.4924 22.8633 78.9905 23.0723 78.6272 23.4356C78.2622 23.7988 78.0549 24.3027 78.0549 24.8164C78.0549 25.3301 78.2622 25.834 78.6272 26.1973C78.9905 26.5606 79.4944 26.7696 80.0081 26.7696C80.5216 26.7696 81.0237 26.5606 81.3889 26.1973Z" fill="#F39F18"/>
<path d="M43.9177 45.8692C44.4316 45.8692 44.9334 45.6621 45.2986 45.2989C45.6619 44.9336 45.8709 44.4317 45.8709 43.918C45.8709 43.4043 45.6621 42.9004 45.2986 42.5352C44.9353 42.1719 44.4316 41.9648 43.9177 41.9648C43.4021 41.9648 42.8982 42.1719 42.5351 42.5352C42.1718 42.8984 41.9646 43.4024 41.9646 43.918C41.9646 44.4317 42.1718 44.9356 42.5351 45.2989C42.8984 45.6621 43.4023 45.8692 43.9177 45.8692Z" fill="#F39F18"/>
</g>
<rect x="0.5" y="0.5" width="99" height="99" stroke="#D8D8D8" stroke-opacity="0.06"/>
<defs>
<clipPath id="clip0_131_209">
<rect width="100" height="100" fill="white"/>
</clipPath>
</defs>
</svg>
