<svg width="80" height="80" viewBox="0 0 80 80" fill="none" xmlns="http://www.w3.org/2000/svg">
<g clip-path="url(#clip0_23_89)">
<path d="M78.8121 17.7735C77.8509 16.6322 76.4437 15.9775 74.9513 15.9775H71.3696C69.7794 13.1783 66.8056 11.4201 63.5292 11.4201H62.7884V5.9701C62.7884 5.10713 62.0889 4.40759 61.2259 4.40759C55.4016 4.40759 50.6632 9.14607 50.6632 14.9703V19.853C50.6632 23.2513 48.787 26.3306 45.767 27.8889L40.6654 30.5212C39.8985 30.917 39.5976 31.8594 39.9932 32.6262C40.2706 33.1639 40.8168 33.4727 41.3831 33.4727C41.6243 33.4727 41.8692 33.4167 42.0982 33.2984L47.1998 30.6661C51.2638 28.5692 53.7882 24.4259 53.7882 19.8532V14.9702C53.7882 11.405 56.3101 8.41747 59.6634 7.69762V12.9827C59.6634 13.8456 60.3631 14.5452 61.2259 14.5452H63.5292C65.9048 14.5452 68.037 15.9594 68.9613 18.148C69.2056 18.7266 69.7725 19.1027 70.4007 19.1027H74.9513C75.5198 19.1027 76.0559 19.3521 76.4221 19.7869C76.7884 20.2218 76.943 20.7924 76.8465 21.3527L76.2682 24.7071C75.9012 26.8348 74.068 28.3789 71.9091 28.3789H64.9528C64.9364 28.3789 64.9206 28.3807 64.9044 28.3814C64.8881 28.3809 64.8723 28.3789 64.8559 28.3789C63.9931 28.3789 63.2934 29.0784 63.2934 29.9414V37.5813C63.2934 43.1082 62.2265 48.497 60.1226 53.5981C59.9929 53.9123 59.9695 54.2603 60.0553 54.5892L63.8986 69.2875C63.9658 69.5442 64.097 69.7795 64.2803 69.9714L65.6536 71.4095C65.9019 71.6695 65.8372 71.9464 65.7764 72.0881C65.7156 72.23 65.5601 72.4681 65.2006 72.4681H59.9953L53.2802 55.0692V47.8436C53.2802 46.9806 52.5805 46.281 51.7177 46.281C50.8547 46.281 50.1552 46.9806 50.1552 47.8436V55.3603C50.1552 55.5527 50.1906 55.7435 50.26 55.923L56.6457 72.4678H51.1491C50.3949 67.5796 46.1595 63.8251 41.0635 63.8251H39.2999L38.6024 59.6863C37.857 55.263 34.5399 51.8034 30.1517 50.8728L27.1961 50.2459C26.3527 50.067 25.5225 50.6061 25.3434 51.4501C25.1644 52.2944 25.7036 53.1238 26.5478 53.3028L29.5035 53.9297C32.628 54.5924 34.9899 57.0558 35.5207 60.2055L36.1307 63.8249H26.5036C25.6408 63.8249 24.9411 64.5245 24.9411 65.3874C24.9411 66.2504 25.6408 66.95 26.5036 66.95H41.0635C44.4309 66.95 47.2567 69.3128 47.9699 72.4676H26.2483C18.431 72.4676 12.0711 66.1078 12.0711 58.2905C12.0711 52.4312 15.3057 47.1225 20.5126 44.4359L29.6046 39.7446C30.3713 39.349 30.6722 38.4065 30.2766 37.6396C29.881 36.8727 28.938 36.5716 28.1716 36.9675L19.0796 41.6588C16.5852 42.9459 14.4694 44.7352 12.8255 46.8667C12.6529 46.0476 12.565 45.2077 12.565 44.351C12.565 39.9882 14.929 35.9444 18.7342 33.7978C19.7649 33.2164 20.254 32.0516 19.9514 30.899C19.6328 29.6858 18.5429 28.837 17.2966 28.8273C17.2895 28.8272 17.2826 28.8262 17.2754 28.8262C17.2709 28.8262 17.2662 28.8262 17.2615 28.8264C17.2596 28.8264 17.2579 28.8267 17.256 28.8267C7.92641 28.837 0.188539 36.521 0.00322481 45.9646C-0.126151 52.5542 3.5045 58.6936 9.29783 61.7715C10.9133 69.6492 17.8998 75.5927 26.2483 75.5927H65.2008C66.7277 75.5927 68.0491 74.7206 68.6495 73.3169C69.2502 71.9131 68.9681 70.3551 67.9136 69.2507L66.8195 68.1053L63.2098 54.3003C65.3391 48.9647 66.4183 43.3424 66.4183 37.5811V31.5037H71.9091C75.5932 31.5037 78.7217 28.8686 79.3476 25.2379L79.9259 21.8834C80.1796 20.4127 79.7737 18.9147 78.8121 17.7735ZM3.12778 46.026C3.2695 38.8047 8.77345 32.8363 15.7001 32.0414C11.8003 34.8894 9.44033 39.4607 9.44033 44.351C9.44033 46.457 9.8594 48.4848 10.6855 50.3911C9.61596 52.6944 9.01204 55.2306 8.95345 57.8682C5.26202 55.1281 3.03575 50.7159 3.12778 46.026Z" fill="#343434"/>
<path d="M65.1113 20.9577C65.4018 20.6671 65.5691 20.264 65.5691 19.853C65.5691 19.4421 65.4019 19.039 65.1113 18.7483C64.8207 18.4577 64.4174 18.2905 64.0066 18.2905C63.5941 18.2905 63.1925 18.4577 62.9019 18.7483C62.6099 19.039 62.4441 19.4421 62.4441 19.853C62.4441 20.264 62.6099 20.6671 62.9019 20.9577C63.1925 21.2484 63.5957 21.4156 64.0066 21.4156C64.4174 21.4156 64.8191 21.2484 65.1113 20.9577Z" fill="#343434"/>
<path d="M35.1343 36.6954C35.5454 36.6954 35.9468 36.5297 36.239 36.2391C36.5297 35.9469 36.6968 35.5454 36.6968 35.1344C36.6968 34.7235 36.5298 34.3203 36.239 34.0282C35.9484 33.7375 35.5454 33.5719 35.1343 33.5719C34.7218 33.5719 34.3187 33.7375 34.0282 34.0282C33.7376 34.3188 33.5718 34.7219 33.5718 35.1344C33.5718 35.5454 33.7376 35.9485 34.0282 36.2391C34.3189 36.5297 34.722 36.6954 35.1343 36.6954Z" fill="#343434"/>
</g>
<defs>
<clipPath id="clip0_23_89">
<rect width="80" height="80" fill="white"/>
</clipPath>
</defs>
</svg>
