<svg width="80" height="80" viewBox="0 0 80 80" fill="none" xmlns="http://www.w3.org/2000/svg">
<g clip-path="url(#clip0_25_131)">
<path d="M74.556 32.7554C71.0602 29.635 66.3691 26.9506 61.3446 25.1946C61.3413 25.1934 61.3382 25.1923 61.3349 25.191C61.3294 25.1892 61.3241 25.1871 61.3187 25.1851C58.9998 24.3764 56.6171 23.7662 54.2272 23.3635C52.8165 21.6531 48.1372 16.6868 40.0349 14.8043C38.6886 14.4912 37.2949 14.806 36.2096 15.6676C35.1175 16.5348 34.4913 17.8312 34.4913 19.2246V25.6592C26.8813 29.0084 20.8483 34.4706 17.6047 37.8243C17.1217 35.3862 16.0506 32.3039 13.6865 29.9398C9.18481 25.4382 1.93839 25.6253 1.63401 25.6356C0.745576 25.6651 0.032293 26.3784 0.00307419 27.2668C-0.00723833 27.5729 -0.192239 34.8161 4.30902 39.3173C5.42574 40.434 6.70559 41.2531 8.00887 41.8553C6.70559 42.4701 5.42543 43.2975 4.30886 44.414C-0.192239 48.917 -0.00708208 56.16 0.00307419 56.4661C0.032293 57.3545 0.745576 58.068 1.63401 58.0975C1.66292 58.0985 1.75402 58.1011 1.89917 58.1011C3.2873 58.1011 9.61137 57.8683 13.6865 53.7916C16.0704 51.4077 17.1394 48.2548 17.6159 45.7706C19.995 48.2261 23.8703 51.8113 28.7697 54.8769V60.7753C28.7697 62.2224 29.4352 63.548 30.5955 64.4121C31.3936 65.0063 32.3333 65.3139 33.2931 65.3139C33.731 65.3139 34.173 65.25 34.6075 65.12C38.691 63.9008 41.7803 61.6757 43.2124 60.5033C44.5921 60.7055 45.9668 60.8092 47.3094 60.8092C51.9186 60.8092 56.5307 60.0339 61.0171 58.5052C61.0201 58.5042 61.023 58.5031 61.026 58.5022C71.4887 54.9363 79.9993 47.442 79.9993 41.7934C80.0003 39.0987 78.0668 35.8892 74.556 32.7554ZM6.69637 36.9306C4.38699 34.6212 3.68121 31.1554 3.46761 29.0946C5.52449 29.3036 8.97809 30.0046 11.3001 32.3267C13.6075 34.6339 14.3137 38.0347 14.5283 40.0539C12.5008 39.8844 9.01215 39.2464 6.69637 36.9306ZM11.3 51.4048C8.99262 53.713 5.53012 54.4192 3.46824 54.6331C3.68277 52.5705 4.38949 49.1086 6.69637 46.8006C9.01325 44.4837 12.4947 43.7819 14.5325 43.5712C14.3237 45.6275 13.6228 49.082 11.3 51.4048ZM37.8671 19.2245C37.8671 18.8668 38.028 18.5338 38.3089 18.3109C38.4699 18.1829 38.8092 17.9846 39.2706 18.092C43.5325 19.0823 46.7271 21.0792 48.8429 22.8064C48.3305 22.787 47.8193 22.7771 47.31 22.7771C44.2297 22.7771 41.063 23.3096 37.8671 24.3607V19.2245ZM33.6417 61.8856C33.2855 61.9922 32.9099 61.9263 32.6122 61.7046C32.438 61.5749 32.1456 61.2817 32.1456 60.7753V56.803C34.3749 57.9541 36.6003 58.8603 38.8058 59.5181C37.4519 60.3667 35.6936 61.273 33.6417 61.8856ZM47.3102 57.4335C45.9039 57.4335 44.4533 57.305 43.0003 57.052C39.2033 56.3875 35.2753 54.8508 31.3256 52.4838C25.1033 48.7542 20.4181 43.9014 18.5323 41.7926C20.9339 39.1061 27.878 31.9697 36.8121 28.3418C36.8228 28.3375 36.8338 28.3335 36.8444 28.329C40.4108 26.8851 43.9318 26.1526 47.31 26.1526C49.2105 26.1526 51.1419 26.3 53.0513 26.5909C54.5088 26.8125 55.9657 27.1209 57.4074 27.5093C53.8655 31.269 51.6172 36.8072 51.6172 42.1709C51.6172 47.0683 53.7879 52.3534 57.2035 56.1314C53.9385 56.995 50.6221 57.4335 47.3102 57.4335ZM60.8252 54.9922C57.3076 51.8216 54.9927 46.7869 54.9927 42.1712C54.9927 37.1225 57.4569 31.7164 61.0671 28.684C70.7293 32.2976 76.6248 38.6715 76.6248 41.793C76.6248 44.9673 70.6384 51.3963 60.8252 54.9922Z" fill="#343434"/>
<path d="M67.0555 39.7271C66.1235 39.7271 65.3677 40.4828 65.3677 41.4149V42.171C65.3677 43.103 66.1235 43.8588 67.0555 43.8588C67.9875 43.8588 68.7433 43.103 68.7433 42.171V41.4149C68.7432 40.4828 67.9874 39.7271 67.0555 39.7271Z" fill="#343434"/>
<path d="M49.5779 30.4477C48.9019 29.8057 47.8338 29.8335 47.1919 30.5093C47.0301 30.6798 46.8704 30.8584 46.7169 31.0404C46.1163 31.7534 46.2072 32.818 46.9204 33.4185C47.2369 33.6854 47.6229 33.8157 48.0069 33.8157C48.4874 33.8157 48.9648 33.6115 49.2983 33.2152C49.4088 33.0841 49.5237 32.9557 49.6394 32.8337C50.2815 32.1577 50.2538 31.0896 49.5779 30.4477Z" fill="#343434"/>
<path d="M49.3832 51.0964C47.5071 48.9364 46.4311 45.66 46.4311 42.1072C46.4311 40.1181 46.7793 38.1612 47.4383 36.4478C47.7729 35.5778 47.3388 34.6014 46.469 34.2667C45.5988 33.932 44.6224 34.366 44.2877 35.236C43.4818 37.332 43.0557 39.7079 43.0557 42.1068C43.0557 46.4612 44.433 50.5445 46.8347 53.3097C47.1686 53.6941 47.6377 53.8908 48.1096 53.8908C48.5019 53.8908 48.8961 53.7547 49.2157 53.4773C49.9193 52.8659 49.9944 51.8 49.3832 51.0964Z" fill="#343434"/>
</g>
<defs>
<clipPath id="clip0_25_131">
<rect width="80" height="80" fill="white"/>
</clipPath>
</defs>
</svg>
