<svg width="50" height="50" viewBox="0 0 50 50" fill="none" xmlns="http://www.w3.org/2000/svg">
<g clip-path="url(#clip0_124_96)">
<path d="M35.449 19.6287C35.449 13.8671 30.7616 9.17969 25.0001 9.17969C19.2386 9.17969 14.5512 13.8671 14.5512 19.6286C14.5512 22.3116 15.8486 24.5961 17.1179 26.477L23.0329 35.2422C21.3808 35.3201 19.8559 35.4954 18.6158 35.7555C17.1801 36.0565 15.2713 36.6178 15.2713 38.0082C15.2713 39.3986 17.1801 39.9598 18.6158 40.2608C20.336 40.6216 22.6033 40.8203 25.0001 40.8203C27.3969 40.8203 29.6642 40.6216 31.3844 40.2608C32.8202 39.9598 34.729 39.3985 34.729 38.0082C34.729 36.6178 32.8202 36.0566 31.3844 35.7555C30.1444 35.4954 28.6194 35.3201 26.9673 35.2422L32.8824 26.4771C34.1516 24.5963 35.449 22.3118 35.449 19.6287ZM32.2501 38.0082C31.1287 38.4022 28.6356 38.8672 25.0001 38.8672C21.3646 38.8672 18.8716 38.4022 17.7502 38.0082C18.8716 37.6141 21.3646 37.1491 25.0001 37.1491C28.6356 37.1491 31.1287 37.6141 32.2501 38.0082ZM25.0001 34.6657L18.7368 25.3845C17.5772 23.6661 16.5043 21.7796 16.5043 19.6287C16.5043 14.9441 20.3154 11.1329 25.0001 11.1329C29.6848 11.1329 33.4959 14.9441 33.4959 19.6287C33.4959 21.7798 32.423 23.6663 31.2635 25.3846L25.0001 34.6657ZM27.832 14.7237C25.1273 13.1622 21.6567 14.0922 20.095 16.7968C18.5335 19.5015 19.4635 22.9723 22.1682 24.5338C23.0579 25.0475 24.0302 25.2915 24.9905 25.2915C26.9494 25.2915 28.8573 24.2756 29.9051 22.4606C30.6615 21.1505 30.8625 19.6241 30.4709 18.1628C30.0793 16.7015 29.1422 15.4801 27.832 14.7237ZM28.2137 21.4841C27.1905 23.2561 24.9168 23.8654 23.1447 22.8424C21.3728 21.8193 20.7635 19.5454 21.7865 17.7733C22.8097 16.0013 25.0839 15.3922 26.8555 16.4151C27.7139 16.9107 28.3278 17.7109 28.5844 18.6683C28.8409 19.6256 28.7093 20.6257 28.2137 21.4841ZM25.0001 0C11.215 0 0 11.2149 0 25C0 38.7851 11.215 50 25.0001 50C38.7852 50 50.0001 38.7851 50.0001 25C50.0001 11.2149 38.7852 0 25.0001 0ZM25.0001 48.0469C12.2919 48.0469 1.95312 37.708 1.95312 25C1.95312 12.292 12.2919 1.95312 25.0001 1.95312C37.7082 1.95312 48.047 12.2919 48.047 25C48.047 37.7081 37.7082 48.0469 25.0001 48.0469Z" fill="#F39F18"/>
</g>
<defs>
<clipPath id="clip0_124_96">
<rect width="50" height="50" fill="white"/>
</clipPath>
</defs>
</svg>
