<svg width="70" height="70" viewBox="0 0 70 70" fill="none" xmlns="http://www.w3.org/2000/svg">
<g clip-path="url(#clip0_40_15)">
<mask id="path-1-inside-1_40_15" fill="white">
<path d="M58.0983 8.70937C51.4279 2.83826 42.8492 -0.248853 33.9425 0.0159714C24.9957 0.282163 16.5809 3.91628 10.2485 10.2488C3.91595 16.5814 0.281827 24.996 0.0154985 33.943C-0.249599 42.8495 2.83765 51.4284 8.70876 58.0989C8.91138 58.3292 9.19439 58.4468 9.4789 58.4468C9.71952 58.4468 9.9611 58.3626 10.1559 58.1912C10.581 57.817 10.6224 57.1691 10.2482 56.744C4.72177 50.4651 1.81581 42.3892 2.06532 34.004C2.31593 25.5816 5.73718 17.6603 11.6984 11.699C17.6597 5.73765 25.5811 2.31654 34.0034 2.06593C42.3886 1.81628 50.4644 4.72238 56.7434 10.2488C57.1684 10.6229 57.8165 10.5817 58.1906 10.1565C58.5648 9.73148 58.5235 9.08343 58.0983 8.70937Z"/>
</mask>
<path d="M58.0983 8.70937C51.4279 2.83826 42.8492 -0.248853 33.9425 0.0159714C24.9957 0.282163 16.5809 3.91628 10.2485 10.2488C3.91595 16.5814 0.281827 24.996 0.0154985 33.943C-0.249599 42.8495 2.83765 51.4284 8.70876 58.0989C8.91138 58.3292 9.19439 58.4468 9.4789 58.4468C9.71952 58.4468 9.9611 58.3626 10.1559 58.1912C10.581 57.817 10.6224 57.1691 10.2482 56.744C4.72177 50.4651 1.81581 42.3892 2.06532 34.004C2.31593 25.5816 5.73718 17.6603 11.6984 11.699C17.6597 5.73765 25.5811 2.31654 34.0034 2.06593C42.3886 1.81628 50.4644 4.72238 56.7434 10.2488C57.1684 10.6229 57.8165 10.5817 58.1906 10.1565C58.5648 9.73148 58.5235 9.08343 58.0983 8.70937Z" fill="#343434" stroke="#343434" stroke-width="6" mask="url(#path-1-inside-1_40_15)"/>
<mask id="path-2-inside-2_40_15" fill="white">
<path d="M61.291 11.9017C60.917 11.4766 60.2689 11.4352 59.8438 11.8094C59.4188 12.1834 59.3774 12.8315 59.7516 13.2566C65.2779 19.5354 68.184 27.6112 67.9345 35.9964C67.6838 44.4189 64.2627 52.3401 58.3014 58.3014C52.34 64.2628 44.4188 67.6839 35.9964 67.9345C27.6109 68.1836 19.5353 65.278 13.2564 59.7516C12.8315 59.3775 12.1834 59.4187 11.8092 59.8439C11.435 60.2689 11.4763 60.917 11.9015 61.291C18.3073 66.9292 26.4729 70 34.9989 70C35.3512 70 35.7041 69.9948 36.0574 69.9843C45.0044 69.718 53.419 66.0839 59.7514 59.7515C66.084 53.4191 69.7181 45.0043 69.9844 36.0574C70.2492 27.1507 67.162 18.5719 61.291 11.9017Z"/>
</mask>
<path d="M61.291 11.9017C60.917 11.4766 60.2689 11.4352 59.8438 11.8094C59.4188 12.1834 59.3774 12.8315 59.7516 13.2566C65.2779 19.5354 68.184 27.6112 67.9345 35.9964C67.6838 44.4189 64.2627 52.3401 58.3014 58.3014C52.34 64.2628 44.4188 67.6839 35.9964 67.9345C27.6109 68.1836 19.5353 65.278 13.2564 59.7516C12.8315 59.3775 12.1834 59.4187 11.8092 59.8439C11.435 60.2689 11.4763 60.917 11.9015 61.291C18.3073 66.9292 26.4729 70 34.9989 70C35.3512 70 35.7041 69.9948 36.0574 69.9843C45.0044 69.718 53.419 66.0839 59.7514 59.7515C66.084 53.4191 69.7181 45.0043 69.9844 36.0574C70.2492 27.1507 67.162 18.5719 61.291 11.9017Z" fill="#343434" stroke="#343434" stroke-width="6" mask="url(#path-2-inside-2_40_15)"/>
<path d="M49.0745 44.5507C48.7289 41.2605 47.0185 37.5959 44.4996 34.7481C41.6943 31.5767 38.322 29.83 35.0038 29.83C27.9505 29.83 21.6485 37.7432 20.9333 44.5506C20.651 47.2382 21.2637 49.4406 22.7546 51.0963C24.0635 52.5499 26.0591 53.5668 28.6859 54.1186C30.9736 54.5992 33.3874 54.6547 35.004 54.6547C38.8869 54.6547 44.3812 54.2858 47.2531 51.0963C48.7441 49.4406 49.357 47.2384 49.0745 44.5507ZM45.729 49.7242C43.4046 52.3056 38.4947 52.604 35.0037 52.604C31.5127 52.604 26.6027 52.3054 24.2784 49.7242C23.1777 48.5016 22.7504 46.8795 22.9726 44.765C23.2753 41.8834 24.7974 38.6467 27.0439 36.1067C29.4545 33.3815 32.2813 31.8806 35.0037 31.8806C37.726 31.8806 40.5528 33.3815 42.9635 36.1067C45.2102 38.6467 46.7321 41.8832 47.0348 44.765C47.257 46.8795 46.8297 48.5016 45.729 49.7242Z" fill="#F39F18"/>
<path d="M32.9362 19.5181C32.3121 17.9456 31.1698 16.682 29.7198 15.9603C28.232 15.2197 26.6011 15.1342 25.1274 15.719C23.6537 16.304 22.5255 17.4848 21.9507 19.0441C21.3905 20.5639 21.4257 22.2669 22.05 23.8394C23.3983 27.2362 26.1133 29.3922 28.7297 29.3918C29.3051 29.3918 29.8765 29.2874 30.4268 29.0689C33.479 27.8573 34.5814 23.6621 32.9362 19.5181ZM29.67 27.163C27.7525 27.924 25.1361 26.0555 23.9561 23.0829C23.5186 21.9807 23.4898 20.7982 23.8749 19.7536C24.2454 18.7481 24.959 17.9923 25.884 17.6253C26.2831 17.4668 26.7031 17.388 27.1288 17.388C27.6898 17.388 28.2606 17.5248 28.8058 17.7963C29.8028 18.2924 30.5926 19.1728 31.0301 20.2749C32.2101 23.2475 31.5872 26.4019 29.67 27.163Z" fill="#F39F18"/>
<path d="M57.4191 30.3171C57.364 28.8959 56.7574 27.6353 55.7111 26.7676C53.5849 25.0045 50.2893 25.4581 48.3647 27.7788C45.9532 30.6869 45.7581 34.3693 47.9203 36.1624C48.6583 36.7744 49.5771 37.0877 50.5914 37.0877C51.0688 37.0878 51.5677 37.0184 52.0786 36.8778C53.5456 36.4743 54.9656 35.5142 56.0768 34.1742C56.9959 33.0661 57.4726 31.6962 57.4191 30.3171ZM54.4983 32.8651C53.653 33.8846 52.6006 34.6075 51.535 34.9003C50.603 35.1567 49.7845 35.0441 49.2294 34.5839C47.995 33.5602 48.3219 31.0433 49.9434 29.088C51.1461 27.6377 53.1463 27.3049 54.402 28.3463C54.994 28.8371 55.3377 29.5653 55.3699 30.3965C55.4038 31.2699 55.0941 32.1465 54.4983 32.8651Z" fill="#F39F18"/>
<path d="M44.8803 15.7191C41.879 14.5279 38.3759 16.232 37.0714 19.5183C35.4264 23.6624 36.5288 27.8576 39.581 29.069C40.1316 29.2877 40.7024 29.392 41.2781 29.392C43.8944 29.392 46.6095 27.2361 47.9577 23.8395C49.2621 20.5531 47.8815 16.9105 44.8803 15.7191ZM46.0517 23.0827C45.0502 25.6055 43.0142 27.3331 41.249 27.3328C40.9343 27.3328 40.6279 27.2779 40.3378 27.1628C38.4204 26.4018 37.7975 23.2474 38.9776 20.2747C39.8649 18.0395 42.173 16.8509 44.1237 17.6251C46.0739 18.3992 46.9388 20.8476 46.0517 23.0827Z" fill="#F39F18"/>
<path d="M23.5601 32.2084C23.4351 30.6921 22.7542 29.119 21.6431 27.779C20.724 26.6706 19.466 25.9486 18.1009 25.746C16.6943 25.5371 15.343 25.9 14.2967 26.7677C12.1704 28.531 12.0064 31.8535 13.931 34.1743C15.0421 35.5144 16.462 36.4745 17.9292 36.8779C18.4402 37.0185 18.9388 37.0879 19.4165 37.0879C20.4306 37.0879 21.3496 36.7746 22.0875 36.1626C23.1729 35.2625 23.696 33.8582 23.5601 32.2084ZM20.7784 34.5839C20.2234 35.0443 19.4044 35.1565 18.4729 34.9004C17.4073 34.6074 16.3548 33.8846 15.5095 32.8651C14.3068 31.4149 14.35 29.3877 15.6058 28.3463C16.0852 27.9486 16.6876 27.7398 17.3366 27.7398C17.4888 27.7398 17.6436 27.7513 17.7997 27.7744C18.6642 27.9028 19.4685 28.3692 20.0643 29.0878C20.9096 30.1073 21.4252 31.2753 21.516 32.3766C21.5954 33.3398 21.3335 34.1236 20.7784 34.5839Z" fill="#F39F18"/>
</g>
<defs>
<clipPath id="clip0_40_15">
<rect width="70" height="70" fill="white"/>
</clipPath>
</defs>
</svg>
