<svg width="50" height="50" viewBox="0 0 50 50" fill="none" xmlns="http://www.w3.org/2000/svg">
<path d="M46.5909 7.95459H3.40908C1.47725 7.95459 0 9.43184 0 11.3637V38.6364C0 40.5683 1.47725 42.0455 3.40908 42.0455H46.5909C48.5228 42.0455 50 40.5683 50 38.6364V11.3637C50 9.43184 48.5228 7.95459 46.5909 7.95459ZM47.7272 38.6363C47.7272 39.3182 47.2727 39.7727 46.5909 39.7727H3.40908C2.72725 39.7727 2.27275 39.3181 2.27275 38.6363V11.3637C2.27275 10.6818 2.72734 10.2273 3.40908 10.2273H46.5909C47.2728 10.2273 47.7272 10.6819 47.7272 11.3637V38.6363Z" fill="#F39F18"/>
<path d="M14.3182 25.227C13.8636 24.8861 13.0682 24.9998 12.7273 25.4543L4.77277 35.6816C4.43185 36.1362 4.43185 36.9316 5.00001 37.2725C5.22726 37.3862 5.4546 37.4998 5.68185 37.4998C6.02276 37.4998 6.36368 37.3861 6.59093 37.0452L14.5455 26.8179C14.8863 26.3635 14.8863 25.5679 14.3182 25.227Z" fill="#F39F18"/>
<path d="M45.2272 35.682L37.2726 25.4548C36.9317 25.0002 36.1363 24.8866 35.6817 25.2275C35.2271 25.5685 35.1136 26.3639 35.4545 26.8185L43.4091 37.0457C43.6363 37.3866 43.9772 37.5003 44.3181 37.5003C44.5454 37.5003 44.7727 37.3866 45 37.2731C45.4546 36.932 45.5681 36.1365 45.2272 35.682Z" fill="#F39F18"/>
<path d="M45.2272 12.841C44.7727 12.3865 44.0909 12.3865 43.6363 12.7274L27.1591 26.2501C25.9091 27.2729 24.0909 27.2729 22.8409 26.2501L6.36365 12.7274C5.90906 12.2728 5.11365 12.3865 4.77273 12.841C4.43181 13.2956 4.43181 14.091 4.8864 14.432L21.3637 27.9547C22.3864 28.8638 23.6364 29.2047 25 29.2047C26.3636 29.2047 27.6136 28.7501 28.6363 27.9547L45.1136 14.432C45.5681 13.9774 45.6818 13.2955 45.2272 12.841Z" fill="#F39F18"/>
</svg>
