<svg width="80" height="80" viewBox="0 0 80 80" fill="none" xmlns="http://www.w3.org/2000/svg">
<g clip-path="url(#clip0_23_95)">
<path d="M75.8514 39.8055H78.4375C79.3003 39.8055 80 39.106 80 38.243C80 37.38 79.3005 36.6805 78.4375 36.6805H73.6875L76.9491 33.419C77.5592 32.8088 77.5592 31.8194 76.9491 31.2093C76.3391 30.5991 75.35 30.5991 74.7392 31.2093L71.8066 34.1419L68.6306 29.695C67.8458 28.596 66.9116 27.6744 65.8736 26.9408L68.9847 26.4449C73.0194 25.8016 75.9476 22.3694 75.9476 18.2838C75.9476 13.7269 72.2403 10.0197 67.6834 10.0197C63.5978 10.0197 60.1658 12.9482 59.5225 16.9827L59.5103 17.0588L59.4981 16.9827C58.8548 12.9482 55.4226 10.0197 51.3372 10.0197C48.5567 10.0197 46.0944 11.4015 44.5956 13.513C38.8947 8.37005 30.9906 7.01879 23.8951 9.99833C23.0995 10.3325 22.7255 11.2483 23.0595 12.044C23.3936 12.8394 24.3092 13.2135 25.1052 12.8796C31.1406 10.3449 37.8748 11.5371 42.6794 15.9908L43.262 16.531C43.1394 17.0963 43.0731 17.6822 43.0731 18.2836C43.0731 22.3691 46.0014 25.8015 50.0359 26.4447L52.935 26.9069C49.8648 28.97 48.0026 32.3999 48.0026 36.3047C48.0026 39.5494 49.3706 42.4786 51.5575 44.5527H43.5891C42.9684 40.9508 40.2405 38.0607 36.7245 37.2024C37.8917 35.48 38.543 33.4252 38.543 31.3055C38.543 25.5143 33.8316 20.8029 28.0403 20.8029C27.1773 20.8029 26.4778 21.5024 26.4778 22.3654C26.4778 23.2283 27.1773 23.9279 28.0403 23.9279C32.1084 23.9279 35.418 27.2375 35.418 31.3055C35.418 33.508 34.4698 35.536 32.8 36.9419H31.7187C30.8558 36.9419 30.1562 37.6415 30.1562 38.5044C30.1562 39.3674 30.8558 40.0669 31.7187 40.0669H34.5492C37.3441 40.0669 39.7012 41.9729 40.3919 44.5529H31.4775C22.3919 44.5527 15 37.1608 15 28.075C15 25.8658 15.4012 23.7538 16.1928 21.7974C16.5164 20.9974 16.1303 20.0866 15.3303 19.7629C14.5303 19.4393 13.6195 19.8254 13.2958 20.6254C12.8456 21.7379 12.5028 22.8908 12.2659 24.0758C5.04484 25.9816 -0.0645387 32.6069 0.00030505 40.1572C0.0781175 49.1671 7.54968 56.4971 16.6559 56.4971H37.1033C40.3951 56.4971 43.0733 59.1752 43.0733 62.4671C43.0733 65.759 40.3951 68.4369 37.1033 68.4369H28.8281C27.9651 68.4369 27.2656 69.1365 27.2656 69.9994C27.2656 70.8624 27.9651 71.5619 28.8281 71.5619H37.1033C42.1183 71.5619 46.1983 67.4819 46.1983 62.4671C46.1983 57.4522 42.1183 53.3721 37.1033 53.3721H16.6559C9.25796 53.3721 3.18827 47.4319 3.12546 40.1305C3.0764 34.4305 6.66499 29.3821 11.8847 27.4683C11.8789 27.67 11.875 27.8721 11.875 28.0752C11.875 38.8841 20.6686 47.6777 31.4775 47.6777H65.0289L63.3153 49.3911C62.7051 50.0013 62.7051 50.9907 63.3153 51.6008C63.6205 51.906 64.0203 52.0585 64.4202 52.0585C64.82 52.0585 65.2198 51.9058 65.525 51.6008L69.2666 47.8593V50.6751C69.2666 51.538 69.9662 52.2376 70.8291 52.2376C71.6919 52.2376 72.3916 51.538 72.3916 50.6751V47.6775H78.4375C79.0228 47.6775 79.5591 47.3505 79.8269 46.8301C80.0947 46.3096 80.0492 45.6832 79.7091 45.2069L75.8514 39.8055ZM62.6084 17.4746C63.0086 14.9657 65.143 13.1446 67.6834 13.1446C70.5172 13.1446 72.8226 15.4499 72.8226 18.2836C72.8226 20.8243 71.0017 22.9586 68.4926 23.3585L61.4925 24.4746L62.6084 17.4746ZM46.1983 18.2838C46.1983 15.45 48.5036 13.1447 51.3373 13.1447C53.878 13.1447 56.0123 14.9658 56.4123 17.4747L57.5283 24.4747L50.5281 23.3586C48.0192 22.9588 46.1983 20.8244 46.1983 18.2838ZM59.3756 44.5527C54.8278 44.5527 51.1278 40.8527 51.1278 36.3047C51.1278 31.8675 54.0883 29.338 56.8589 28.4502C57.6661 28.1916 58.567 28.0369 59.5028 28.0369C61.7791 28.0369 64.2601 28.9521 66.0878 31.5111L75.4017 44.5525H59.3756V44.5527Z" fill="#343434"/>
<path d="M60.492 34.2275C60.0811 34.2275 59.6779 34.3947 59.3875 34.6854C59.0968 34.976 58.9295 35.3791 58.9295 35.79C58.9295 36.201 59.0967 36.6041 59.3875 36.8947C59.6779 37.1854 60.0811 37.3525 60.492 37.3525C60.9031 37.3525 61.3061 37.1854 61.5967 36.8947C61.8873 36.6041 62.0545 36.201 62.0545 35.79C62.0545 35.3791 61.8875 34.976 61.5967 34.6854C61.3061 34.3947 60.9031 34.2275 60.492 34.2275Z" fill="#343434"/>
<path d="M18.6531 16.9072C19.064 16.9072 19.4656 16.74 19.7578 16.4494C20.0484 16.1588 20.2156 15.7557 20.2156 15.3447C20.2156 14.9322 20.0484 14.5307 19.7578 14.24C19.4656 13.9479 19.064 13.7822 18.6531 13.7822C18.2406 13.7822 17.8375 13.9479 17.5469 14.24C17.2562 14.5307 17.0891 14.9322 17.0891 15.3447C17.0891 15.7557 17.2562 16.1588 17.5469 16.4494C17.8375 16.7399 18.2406 16.9072 18.6531 16.9072Z" fill="#343434"/>
</g>
<defs>
<clipPath id="clip0_23_95">
<rect width="80" height="80" fill="white"/>
</clipPath>
</defs>
</svg>
