<svg width="80" height="80" viewBox="0 0 80 80" fill="none" xmlns="http://www.w3.org/2000/svg">
<g clip-path="url(#clip0_23_108)">
<path d="M47.461 13.6984C47.7514 13.4078 47.9188 13.0047 47.9188 12.5938C47.9188 12.1828 47.7516 11.7797 47.461 11.4891C47.1703 11.1984 46.7672 11.0312 46.3563 11.0312C45.9438 11.0312 45.5422 11.1984 45.25 11.4891C44.9595 11.7797 44.7938 12.1828 44.7938 12.5938C44.7938 13.0047 44.9595 13.4078 45.25 13.6984C45.5422 13.9891 45.9438 14.1562 46.3563 14.1562C46.7672 14.1562 47.1703 13.9891 47.461 13.6984Z" fill="#343434"/>
<path d="M65.7695 51.4569H50.99C54.3259 48.8095 56.4694 44.7214 56.4694 40.1417V29.8191C61.7523 29.0589 65.8259 24.5045 65.8259 19.0145C65.8259 13.4164 61.59 8.79125 56.1553 8.17C54.9986 3.485 50.7619 0 45.7247 0C43.4453 0 41.2189 0.409375 39.1073 1.21688C38.3013 1.52516 37.8977 2.42828 38.2058 3.23438C38.5139 4.04031 39.4175 4.44375 40.2233 4.13578C41.9773 3.465 43.8283 3.125 45.7248 3.125C49.9264 3.125 53.3445 6.54313 53.3445 10.7447C53.3445 10.7519 53.3455 10.7587 53.3456 10.7658V13.9891C53.3456 15.9045 51.7794 17.4628 49.8539 17.4628C49.3673 17.4628 48.9086 17.6895 48.613 18.0759C48.3173 18.4623 48.2186 18.9645 48.3459 19.4341C49.0306 21.9602 50.9286 23.9781 53.3456 24.8512L53.3445 40.1416C53.3445 46.3808 48.2686 51.4567 42.0292 51.4567H36.843C38.3652 48.6366 39.2303 45.4117 39.2303 41.9883V31.0931C39.2303 25.7863 35.375 21.3658 30.3189 20.4773V18.5306C30.3189 16.6027 30.6702 14.7228 31.3628 12.9437C31.6759 12.1397 31.2778 11.2339 30.4738 10.9208C29.6694 10.6078 28.7639 11.0059 28.4509 11.81C27.6169 13.952 27.1941 16.2133 27.1941 18.5306V20.3872C21.8388 21.0112 17.6677 25.573 17.6677 31.0931V51.4567H14.2305C13.3675 51.4567 12.668 52.1562 12.668 53.0192C12.668 53.8822 13.3675 54.5817 14.2305 54.5817H17.6673V60.4263C17.6673 61.2892 18.367 61.9888 19.2298 61.9888C22.4255 61.9888 25.4478 61.2341 28.13 59.8956V78.4375C28.13 79.3005 28.8297 80 29.6925 80C38.3148 80 45.3294 72.9853 45.3294 64.3631V54.5819H50.9045L57.8541 61.5312C58.1592 61.8364 58.5591 61.9889 58.9589 61.9889C59.3588 61.9889 59.7586 61.8362 60.0638 61.5312C60.6739 60.9211 60.6739 59.9317 60.0638 59.3216L55.3241 54.5819H65.7694C66.6322 54.5819 67.3319 53.8823 67.3319 53.0194C67.332 52.1564 66.6323 51.4569 65.7695 51.4569ZM52.1166 20.1905C54.6542 19.2667 56.4705 16.8355 56.4705 13.9892V11.3789C60.0213 12.1045 62.7009 15.2523 62.7009 19.0145C62.7009 22.7766 60.0213 25.9245 56.4705 26.6502V23.6586C56.4705 22.902 55.9284 22.2541 55.1838 22.1206C53.9353 21.8969 52.8416 21.1878 52.1166 20.1905ZM20.7923 31.0934C20.7923 26.8717 24.2269 23.437 28.4488 23.437C32.6706 23.437 36.1052 26.8717 36.1052 31.0934C36.1052 31.0934 36.1033 42.2027 36.1013 42.3094C36.0605 43.9542 34.7127 45.2806 33.0583 45.2806C31.3781 45.2806 30.0113 43.9138 30.0113 42.2336V34.6553C30.0113 33.7923 29.3116 33.0928 28.4488 33.0928C27.5859 33.0928 26.8863 33.7923 26.8863 34.6553V42.2336C26.8863 43.9138 25.5194 45.2806 23.8392 45.2806C22.1592 45.2806 20.7923 43.9138 20.7923 42.2336V31.0934ZM20.7923 47.5977C21.692 48.1106 22.7316 48.4055 23.8392 48.4055C25.6706 48.4055 27.3173 47.6028 28.4488 46.3319C29.58 47.6028 31.2269 48.4055 33.0583 48.4055C33.7209 48.4055 34.3587 48.2989 34.9575 48.1048C32.6838 53.932 27.2616 58.1958 20.7923 58.7922V47.5977ZM42.2044 64.3631C42.2044 70.7333 37.4197 76.0069 31.255 76.778V57.9595C32.5539 56.9791 33.7295 55.8439 34.7552 54.5819H42.2044V64.3631Z" fill="#343434"/>
<path d="M33.7625 8.05933C34.1734 8.05933 34.5766 7.89214 34.867 7.60151C35.1577 7.31089 35.325 6.90776 35.325 6.49683C35.325 6.08589 35.1578 5.68276 34.867 5.39214C34.5766 5.10151 34.1734 4.93433 33.7625 4.93433C33.3499 4.93433 32.9484 5.10151 32.6578 5.39214C32.3672 5.68276 32.2 6.08589 32.2 6.49683C32.2 6.90776 32.367 7.31089 32.6578 7.60151C32.9484 7.89214 33.3499 8.05933 33.7625 8.05933Z" fill="#343434"/>
</g>
<defs>
<clipPath id="clip0_23_108">
<rect width="80" height="80" fill="white"/>
</clipPath>
</defs>
</svg>
