<svg width="483" height="471" viewBox="0 0 483 471" fill="none" xmlns="http://www.w3.org/2000/svg">
<path fill-rule="evenodd" clip-rule="evenodd" d="M262.749 114.491C287.385 129.168 318.264 86.8416 346.061 93.1615C374.113 99.5395 392.514 126.851 412.437 148.524C438.801 177.204 485.454 200.289 482.357 241.429C479.215 283.158 428.608 301.998 398.772 330.009C377.198 350.263 350.684 362.184 330.479 384.017C306.286 410.158 301.875 474.658 268.647 470.613C227.974 465.661 237.529 373.548 196.982 367.764C149.373 360.973 110.654 466.528 68.9482 442.127C31.8954 420.448 105.231 350.524 92.9082 306.873C82.5175 270.068 25.0041 271.472 10.8395 236.296C-2.95693 202.034 -4.96066 152.617 19.2958 124.067C45.8525 92.8091 98.5723 117.905 131.308 94.5029C161.006 73.2724 156.959 -4.21097 191.408 1.02771C234.528 7.58483 225.083 92.0513 262.749 114.491Z" fill="#F39F18"/>
</svg>
