<svg width="430" height="418" viewBox="0 0 430 418" fill="none" xmlns="http://www.w3.org/2000/svg">
<path fill-rule="evenodd" clip-rule="evenodd" d="M136.408 338.81C107.617 323.572 57.2184 356.503 37.0664 330.755C19.2515 307.992 63.439 268.414 57.9785 238.599C50.2239 196.258 -2.8199 174.13 0.25541 129.76C3.02108 89.8579 36.4846 48.3159 72.4942 29.169C109.573 9.45379 149.669 34.1098 189.478 29.1471C221.321 25.1775 254.815 -8.91954 282.822 2.94891C312.806 15.6551 303.519 69.5424 329.663 88.5524C356.833 108.309 423.833 74.2502 429.268 109.436C435.616 150.526 360.986 172.873 349.21 215.083C341.219 243.727 377.386 262.407 378.612 291.007C380.128 326.353 382.882 369.789 357.004 396.88C332.043 423.01 291.46 415.706 258.113 417.152C229.722 418.383 199.501 419.328 176.766 404.693C155.141 390.773 159.196 350.871 136.408 338.81Z" fill="#F39F18" fill-opacity="0.9"/>
</svg>
