<svg width="421" height="384" viewBox="0 0 421 384" fill="none" xmlns="http://www.w3.org/2000/svg">
<path fill-rule="evenodd" clip-rule="evenodd" d="M297.545 2.18659C335.276 12.223 352.217 59.2389 359.476 94.7301C365.871 126 324.204 151.793 334.413 182.452C347.52 221.816 417.302 236.763 420.219 277.157C422.702 311.545 382.643 342.204 346.244 346.287C306.831 350.708 274.95 291.127 236.097 297.811C190.11 305.724 183.152 375.053 136.981 382.291C92.7926 389.218 33.3074 371.01 9.78323 333.289C-14.7289 293.984 16.0171 248.11 27.2626 206.36C35.0183 177.566 49.1159 152.32 65.2867 127.226C79.3298 105.435 92.7708 82.9029 115.718 69.0965C138.056 55.657 167.968 59.6154 192.931 50.4293C229.913 36.8204 257.433 -8.48342 297.545 2.18659Z" fill="#F39F18" fill-opacity="0.7"/>
</svg>
